<svg xmlns="http://www.w3.org/2000/svg" viewBox="0 0 48 48" width="48" height="48">
  <rect width="48" height="48" rx="10" fill="#161b22" stroke="#30363d" stroke-width="1" />
  <g transform="translate(12, 12)" fill="none" stroke="#eab308" stroke-width="1.5" stroke-linecap="round" stroke-linejoin="round">
    <path d="M4 22h16a2 2 0 0 0 2-2V4a2 2 0 0 0-2-2H8a2 2 0 0 0-2 2v16a2 2 0 0 1-2 2Zm0 0a2 2 0 0 1-2-2v-9c0-1.1.9-2 2-2h2"></path>
    <path d="M18 14h-8"></path>
    <path d="M15 18h-5"></path>
    <path d="M10 6h8v4h-8V6Z"></path>
  </g>
</svg>
